<svg viewBox="0 0 756 1024" fill="none"
    xmlns="http://www.w3.org/2000/svg">
    <path
        d="M682 48V68C682 72 681 73 677 73H234C156 73 88 143.5 88 215V492C88 496 89 497 93 497H471C475 497 476 498 476 502V521C476 525 475 526 471 526H93C89 526 88 527 88 531V960C88 964 87 965 83 965H63C59 965 58 964 58 959C58 959 58 297.5 58 215C58 132.5 130.5 43 234 43C337.5 43 677 43 677 43C681 43 682 44 682 48Z"
        fill="#39A7CD" />
    <path
        d="M144 143H163C167 143 168 144 168 148V381C168 447 238.5 477.5 298 420C298 420 583 121 585 119C587 117 589 117 591 119C593 121 607 134 607 134C609 136 608.5 137.5 607 139L326 434C244.5 520.5 139 477.5 139 381V148C139 144 140 143 144 143Z"
        fill="#39A7CD" />
    <path
        d="M144 965H163C167 965 168 964 168 960V691C168 593.5 294 529.5 373 627L645.5 970.5C648 973.5 650 973 652.5 971L669 958C671 956.5 671 954.5 669.5 952.5L400 613C302.5 489 139 560 139 691V960C139 964 140 965 144 965Z"
        fill="#39A7CD" />
</svg>