<svg width="1920" height="1080" viewBox="0 0 1920 1080" fill="none"
    xmlns="http://www.w3.org/2000/svg">
    <g clip-path="url(#clip0_860_1391)">
        <rect width="1920" height="1080" fill="white" />
        <rect width="1920" height="1080" fill="#363847" />
        <path
            d="M1450 540.5C1450 811.396 1230.4 1031 959.5 1031C688.604 1031 469 811.396 469 540.5C469 269.604 688.604 50 959.5 50C1230.4 50 1450 269.604 1450 540.5ZM506.908 540.5C506.908 790.459 709.541 993.092 959.5 993.092C1209.46 993.092 1412.09 790.459 1412.09 540.5C1412.09 290.541 1209.46 87.9083 959.5 87.9083C709.541 87.9083 506.908 290.541 506.908 540.5Z"
            fill="#336ECC" />
        <path
            d="M799.274 471.258H860.185C873.82 466.431 883.503 460.819 890.091 453.726L823.488 457.206L791.483 458.878L799.274 471.258Z"
            fill="#2D60B3" />
        <path
            d="M767.711 421.105V387.781L730.238 403.085L734.83 453.726L775.595 433.633L767.711 421.105Z"
            fill="#2D60B3" />
        <path d="M750.846 358.252L712.206 319.775V385.205L750.846 358.252Z" fill="#2D60B3" />
        <path
            d="M832.415 339.352L811.639 319.775H763.726L761.618 329.564L805.972 344.145L828.645 351.6L832.415 339.352Z"
            fill="#2D60B3" />
        <path
            d="M905.92 351.6C887.3 346.394 873.331 342.44 871.992 341.928L858.342 363.785L851.309 375.046H912.102L905.92 351.6Z"
            fill="#2D60B3" />
        <path
            d="M954.925 346.05C957.389 337.147 960.193 326.792 962.076 319.775H917.254L954.925 346.05Z"
            fill="#2D60B3" />
        <path
            d="M1067.18 319.775L1087.27 332.419L1116.12 350.574C1116.53 346.955 1124.88 328.533 1129 319.775H1067.18Z"
            fill="#2D60B3" />
        <path
            d="M1108.67 375.046L1133.12 361.273L1116.12 350.574L1087.27 332.419L1042.96 368.719L1035.23 375.046H1108.67Z"
            fill="#2D60B3" />
        <path
            d="M1133.12 361.273L1108.67 375.046L1095.32 394.994L1105.3 394.396L1146.93 391.902L1144.87 366.658L1143.94 355.179L1133.12 361.273Z"
            fill="#2D60B3" />
        <path
            d="M1102.72 476.329L1111.93 462.484L1108.67 429.008L1106.61 407.873C1100.93 413.467 1091.63 422.444 1084.35 429.008L1098.09 476.053L1102.72 476.329Z"
            fill="#2D60B3" />
        <path
            d="M1043.24 472.788L1065.63 474.121C1065.93 472.432 1070.26 453.701 1074.08 437.24C1075.47 431.251 1076.8 425.563 1077.84 421.105L1043.24 472.788Z"
            fill="#2D60B3" />
        <path
            d="M994.613 545.431L995.384 556.25L1027.51 543.79L1045.02 536.995L1051.22 522.247L1047.27 512.973L1011.51 520.186L994.613 545.431Z"
            fill="#2D60B3" />
        <path
            d="M1068.43 527.914L1045.02 536.995L1027.51 543.79L1020.84 588.707L1018.77 602.617L1068.43 527.914Z"
            fill="#2D60B3" />
        <path d="M904.491 680.06L952.562 654.983L956.409 649.528L939.432 627.862L904.491 680.06Z"
            fill="#2D60B3" />
        <path
            d="M1000.63 629.907L986.29 637.389L1005.94 667.532L1038.17 649.528L1054.82 640.226L1043.99 629.907H1000.63Z"
            fill="#2D60B3" />
        <path
            d="M1076.96 680.06L1087.26 671.138L1054.82 640.226L1038.17 649.528L1052.24 680.06H1076.96Z"
            fill="#2D60B3" />
        <path
            d="M1206.79 629.907H1105.82C1110.63 632.807 1116.62 636.409 1122.95 640.226C1143.26 652.461 1167.2 666.904 1168.13 667.532L1187.46 648.719L1206.79 629.907Z"
            fill="#2D60B3" />
        <path d="M1206.79 721.627V664.956L1193.41 671.138L1201.79 702.752L1206.79 721.627Z"
            fill="#2D60B3" />
        <path
            d="M1155.25 702.752C1155.25 725.22 1148.2 731.298 1128.34 731.237L1160.94 752.08L1176.4 761.96L1173.42 744.811L1164.55 693.672L1155.25 691.406V702.752Z"
            fill="#2D60B3" />
        <path d="M1176.4 761.96L1206.79 781.39V737.083L1173.42 744.811L1176.4 761.96Z"
            fill="#2D60B3" />
        <path
            d="M1131.06 781.39L1140.33 772.294L1103.68 737.083L1104.25 748.933L1105.82 781.39H1131.06Z"
            fill="#2D60B3" />
        <path
            d="M1043.99 781.39L1089.84 756.693L1043.99 737.793L1018.77 766.688L1005.94 781.39H1043.99Z"
            fill="#2D60B3" />
        <path
            d="M980.623 734.995L966.237 731.213L943.903 731.215C932.444 734.991 909.011 742.366 906.95 741.658L932.195 750.324L971.669 763.873L980.623 734.995Z"
            fill="#2D60B3" />
        <path
            d="M832.762 781.39H909.526C910.999 779.496 912.782 777.188 914.693 774.692L880.353 748.417L853.982 766.688L839.975 776.393L832.762 781.39Z"
            fill="#2D60B3" />
        <path
            d="M853.982 766.688L855.376 742.75L829.671 731.232C815.09 731.235 806.366 731.237 806.366 731.237L798.244 735.563C801.135 738.344 804.638 741.72 808.372 745.326C822.386 758.861 839.649 775.644 839.975 776.393L853.982 766.688Z"
            fill="#2D60B3" />
        <path d="M745.093 763.873L712.206 781.39H762.695L756.7 757.691L745.093 763.873Z"
            fill="#2D60B3" />
        <path
            d="M746.424 731.237C746.269 734.971 746.054 740.168 745.842 745.326L760.119 731.237L766.113 707.717L767.391 700.504L746.424 731.237Z"
            fill="#2D60B3" />
        <path
            d="M774.03 735.178L813.096 721.112L818.234 713.384L811.124 712.611L792.173 710.551L766.113 707.717L760.119 731.237L774.03 735.178Z"
            fill="#2D60B3" />
        <path
            d="M818.234 713.384L832.96 691.231L831.599 675.775L831.009 669.077L807.517 678.3L811.124 712.611L818.234 713.384Z"
            fill="#2D60B3" />
        <path
            d="M828.64 642.193L795.617 665.986L794.263 683.503L807.517 678.3L831.009 669.077L828.64 642.193Z"
            fill="#2D60B3" />
        <path
            d="M854.879 658.258L837.806 635.59L828.64 642.193L831.009 669.077L831.599 675.775L851.824 662.853L854.879 658.258Z"
            fill="#2D60B3" />
        <path d="M873.814 600.556L846.672 604.21L853.11 621.679L877.555 610.86L873.814 600.556Z"
            fill="#2D60B3" />
        <path
            d="M880.675 551.999L867.795 553.34L854.21 573.251L863.158 571.211L895.175 563.913L880.675 551.999Z"
            fill="#2D60B3" />
        <path
            d="M927.558 548.926L927.717 539.763C927.725 539.299 918.563 536.958 907.98 534.419L910.197 548.926L913.442 570.16L927.558 548.926Z"
            fill="#2D60B3" />
        <path
            d="M928.588 489.613L905.88 497.517L884.439 528.944C886.145 529.33 888.053 529.764 890.091 530.231L928.37 502.154L928.588 489.613Z"
            fill="#2D60B3" />
        <path
            d="M969.25 460.423L964.686 444.452L944.559 449.413L940.713 479.486L971.017 466.606L969.25 460.423Z"
            fill="#2D60B3" />
        <path
            d="M976.008 428.996C973.445 442.135 969.95 459.411 969.25 460.423L971.017 466.606L974.403 478.455L992.555 451.15L976.008 428.996Z"
            fill="#2D60B3" />
        <path d="M964.686 444.452L958.013 421.105L937.515 451.15L944.559 449.413L964.686 444.452Z"
            fill="#2D60B3" />
        <path d="M712.206 410.449V471.258H736.42L734.83 453.726L730.238 403.085L712.206 410.449Z"
            fill="#3066BE" />
        <path
            d="M821.428 375.046L828.645 351.6L805.972 344.145C805.147 345.669 791.89 365.381 785.364 375.046H821.428Z"
            fill="#3066BE" />
        <path
            d="M736.42 471.258H799.274L791.483 458.878L775.595 433.633L734.83 453.726L736.42 471.258Z"
            fill="#3066BE" />
        <path
            d="M754.631 362.021L767.711 375.046H785.364C791.89 365.381 805.147 345.669 805.972 344.145L761.618 329.564L754.631 362.021Z"
            fill="#3066BE" />
        <path
            d="M1036.86 330.079L1035.23 319.775H962.076C960.193 326.792 957.389 337.147 954.925 346.05C952.221 355.822 949.927 363.844 949.711 363.785C957.539 365.955 965.229 368.085 972.38 370.063L1036.86 330.079Z"
            fill="#3066BE" />
        <path fill-rule="evenodd" clip-rule="evenodd"
            d="M1183.09 319.775H1129C1124.88 328.533 1116.53 346.955 1116.12 350.574L1133.12 361.273L1143.94 355.179L1164.55 343.571C1163.31 344.268 1176.4 327.997 1183.09 319.775ZM1067.18 319.775L1087.27 332.419L1042.96 368.719L1036.86 330.079L1035.23 319.775H1067.18ZM949.711 363.785C934.673 359.614 919.126 355.292 905.92 351.6C887.3 346.394 873.331 342.44 871.992 341.928L885.827 319.775H917.254L954.925 346.05C952.221 355.822 949.927 363.844 949.711 363.785Z"
            fill="#3066BE" />
        <path
            d="M1164.55 343.571L1206.79 319.775H1183.09C1176.4 327.997 1163.31 344.268 1164.55 343.571Z"
            fill="#3066BE" />
        <path
            d="M1071.3 474.458L1061.83 497.002L1091.04 493.911L1102.72 476.329L1098.09 476.053L1071.3 474.458Z"
            fill="#3066BE" />
        <path
            d="M995.384 556.25L994.613 545.431L964.137 590.957L966.237 635.59L997.844 590.768L996.265 568.614L995.384 556.25Z"
            fill="#3066BE" />
        <path fill-rule="evenodd" clip-rule="evenodd"
            d="M1000.63 629.907L1018.77 602.617L1020.84 588.707L1027.51 543.79L995.384 556.25L996.265 568.614L997.844 590.768L1000.63 629.907ZM1045.02 536.995L1068.43 527.914L1091.04 493.911L1061.83 497.002L1051.22 522.247L1045.02 536.995ZM1074.08 437.24C1075.31 436.903 1079.35 433.528 1084.35 429.008C1091.63 422.444 1100.93 413.467 1106.61 407.873L1108.67 429.008C1111.28 429.411 1127.91 427.451 1135.9 426.42L1148.23 407.873L1146.93 391.902L1105.3 394.396L1095.32 394.994L1077.84 421.105C1076.8 425.563 1075.47 431.251 1074.08 437.24Z"
            fill="#3066BE" />
        <path fill-rule="evenodd" clip-rule="evenodd"
            d="M1155.25 680.06L1168.13 667.532L1187.46 648.719L1193.41 671.138L1201.79 702.752L1206.79 721.627V737.083L1173.42 744.811L1164.55 693.672L1155.25 691.406V680.06ZM1014.11 680.06H1052.24L1038.17 649.528L1005.94 667.532L1014.11 680.06Z"
            fill="#3066BE" />
        <path
            d="M1103.68 737.083L1097.57 731.215C1079.48 731.211 1055.07 731.209 1028.02 731.209L1043.99 737.793L1089.84 756.693L1104.25 748.933L1103.68 737.083Z"
            fill="#3066BE" />
        <path fill-rule="evenodd" clip-rule="evenodd"
            d="M780.212 781.39H762.695L756.7 757.691L782.273 744.07L784.849 775.452L780.212 781.39ZM914.693 774.692L880.353 748.417L895.688 737.793L906.95 741.658L932.195 750.324L971.669 763.873L966.237 781.39H950.226H909.526C910.999 779.496 912.782 777.188 914.693 774.692Z"
            fill="#3066BE" />
        <path
            d="M745.842 745.326C745.485 754.009 745.136 762.581 745.093 763.873L756.7 757.691L782.273 744.07L792.488 738.629L774.03 735.178L760.119 731.237L745.842 745.326Z"
            fill="#3066BE" />
        <path
            d="M863.158 571.211L854.21 573.251L831.715 606.224L846.672 604.21L873.814 600.556L863.158 571.211Z"
            fill="#3066BE" />
        <path fill-rule="evenodd" clip-rule="evenodd"
            d="M940.713 479.486L971.017 466.606L974.403 478.455L961.732 497.517L955.894 494.345L939.923 485.668L940.713 479.486ZM928.111 517.095L928.37 502.154L890.091 530.231C895.576 531.489 902.005 532.986 907.98 534.419C918.563 536.958 927.725 539.299 927.717 539.763L928.111 517.095ZM895.175 563.913L863.158 571.211L873.814 600.556L877.555 610.86L880.675 619.452L909.675 575.827L895.175 563.913ZM853.11 621.679L855.768 628.892H832.762H816.249L831.715 606.224L846.672 604.21L853.11 621.679ZM792.173 710.551L794.263 683.503L807.517 678.3L811.124 712.611L792.173 710.551ZM774.03 735.178L813.096 721.112L806.366 731.237L798.244 735.563L792.488 738.629L774.03 735.178Z"
            fill="#3066BE" />
        <path
            d="M939.923 485.668L928.588 489.613L928.37 502.154L928.111 517.095L955.894 494.345L939.923 485.668Z"
            fill="#3066BE" />
        <path
            d="M977.532 421.105H958.013L964.686 444.452L969.25 460.423C969.95 459.411 973.445 442.135 976.008 428.996C976.575 426.09 977.096 423.386 977.532 421.105Z"
            fill="#3066BE" />
        <path
            d="M767.711 421.105L775.595 433.633L791.483 458.878L823.488 457.206L856.461 421.105H767.711Z"
            fill="#336ECC" />
        <path
            d="M890.091 453.726C897.899 445.319 901.359 434.831 901.897 421.105H856.461L823.488 457.206L890.091 453.726Z"
            fill="#336ECC" />
        <path
            d="M767.711 387.781V375.046L754.631 362.021L750.846 358.252L712.206 385.205V410.449L730.238 403.085L767.711 387.781Z"
            fill="#336ECC" />
        <path
            d="M712.206 319.775L750.846 358.252L754.631 362.021L761.618 329.564L763.726 319.775H712.206Z"
            fill="#336ECC" />
        <path fill-rule="evenodd" clip-rule="evenodd"
            d="M1067.18 319.775L1087.27 332.419L1042.96 368.719L1035.23 375.046H990.412H912.102L905.92 351.6C919.126 355.292 934.673 359.614 949.711 363.785C957.539 365.955 965.229 368.085 972.38 370.063L1036.86 330.079L1035.23 319.775H1067.18ZM885.827 319.775L871.992 341.928L858.342 363.785L851.309 375.046H821.428L828.645 351.6L832.415 339.352L811.639 319.775H885.827Z"
            fill="#336ECC" />
        <path fill-rule="evenodd" clip-rule="evenodd"
            d="M1000.63 629.907L986.29 637.389L952.562 654.983L956.409 649.528L939.432 627.862L964.137 590.957L966.237 635.59L997.844 590.768L1000.63 629.907ZM1051.22 522.247L1061.83 497.002L1071.3 474.458L1098.09 476.053L1084.35 429.008C1079.35 433.528 1075.31 436.903 1074.08 437.24C1070.26 453.701 1065.93 472.432 1065.63 474.121L1043.24 472.788L1035.23 484.748L1011.51 520.186L1047.27 512.973L1051.22 522.247ZM1108.67 429.008L1111.93 462.484L1135.9 426.42C1127.91 427.451 1111.28 429.411 1108.67 429.008ZM1148.23 407.873L1175.63 366.658L1206.79 319.775L1164.55 343.571L1143.94 355.179L1144.87 366.658L1146.93 391.902L1148.23 407.873Z"
            fill="#336ECC" />
        <path fill-rule="evenodd" clip-rule="evenodd"
            d="M1043.99 629.907H1105.82C1110.63 632.807 1116.62 636.409 1122.95 640.226C1143.26 652.461 1167.2 666.904 1168.13 667.532L1155.25 680.06H1076.96L1087.26 671.138L1054.82 640.226L1043.99 629.907ZM1193.41 671.138L1187.46 648.719L1206.79 629.907V664.956L1193.41 671.138ZM986.29 637.389L1005.94 667.532L1014.11 680.06H904.491L952.562 654.983L986.29 637.389Z"
            fill="#336ECC" />
        <path fill-rule="evenodd" clip-rule="evenodd"
            d="M832.762 781.39H780.212L784.849 775.452L782.273 744.07L792.488 738.629L798.244 735.563C801.135 738.344 804.638 741.72 808.372 745.326C822.386 758.861 839.649 775.644 839.975 776.393L832.762 781.39ZM855.376 742.75L829.671 731.232C841.797 731.23 857.975 731.227 876.553 731.224C896.854 731.221 920.021 731.218 943.903 731.215C932.444 734.991 909.011 742.366 906.95 741.658L895.688 737.793L880.353 748.417L853.982 766.688L855.376 742.75ZM966.237 781.39L971.669 763.873L980.623 734.995L966.237 731.213C979.579 731.212 992.936 731.211 1005.94 731.21C1013.44 731.21 1020.82 731.209 1028.02 731.209L1043.99 737.793L1018.77 766.688L1005.94 781.39H966.237ZM1103.68 737.083L1097.57 731.215C1113.87 731.22 1125.02 731.226 1128.34 731.237L1160.94 752.08L1176.4 761.96L1206.79 781.39H1131.06L1140.33 772.294L1103.68 737.083ZM1089.84 756.693L1104.25 748.933L1105.82 781.39H1043.99L1089.84 756.693Z"
            fill="#336ECC" />
        <path fill-rule="evenodd" clip-rule="evenodd"
            d="M977.532 421.105C977.096 423.386 976.575 426.09 976.008 428.996L992.555 451.15L1012.53 421.105H977.532ZM940.713 479.486L944.559 449.413L937.515 451.15L905.88 497.517L928.588 489.613L939.923 485.668L940.713 479.486ZM927.558 548.926L961.732 497.517L955.894 494.345L928.111 517.095L927.717 539.763L927.558 548.926ZM884.439 528.944C886.145 529.33 888.053 529.764 890.091 530.231C895.576 531.489 902.005 532.986 907.98 534.419L910.197 548.926L913.442 570.16L909.675 575.827L895.175 563.913L880.675 551.999L867.795 553.34L884.439 528.944ZM880.675 619.452L877.555 610.86L853.11 621.679L855.768 628.892H832.762H816.249L796.214 658.258L767.391 700.504L766.113 707.717L792.173 710.551L794.263 683.503L795.617 665.986L828.64 642.193L837.806 635.59L854.879 658.258L862.413 646.924L880.675 619.452ZM832.96 691.231L851.824 662.853L831.599 675.775L832.96 691.231ZM746.424 731.237C746.269 734.971 746.054 740.168 745.842 745.326C745.485 754.009 745.136 762.581 745.093 763.873L712.206 781.39L746.424 731.237Z"
            fill="#336ECC" />
    </g>
    <defs>
        <clipPath id="clip0_860_1391">
            <rect width="1920" height="1080" fill="white" />
        </clipPath>
    </defs>
</svg>